<svg xmlns="http://www.w3.org/2000/svg" width="1200" height="630" viewBox="0 0 1200 630">
  <defs>
    <radialGradient id="g" cx="0.5" cy="0.5" r="0.5">
      <stop offset="0" stop-color="#5ec97a" stop-opacity="0.20"/>
      <stop offset="1" stop-color="#5ec97a" stop-opacity="0"/>
    </radialGradient>
  </defs>
  <rect width="1200" height="630" fill="#07090f"/>
  <circle cx="930" cy="300" r="320" fill="url(#g)"/>

  <!-- 棋盘法 2x2 -->
  <g font-family="JetBrains Mono,PingFang SC,monospace" text-anchor="middle">
    <text x="880" y="168" font-size="26" fill="#7d8da3">D</text>
    <text x="1000" y="168" font-size="26" fill="#7d8da3">d</text>
    <text x="790" y="248" font-size="26" fill="#7d8da3">D</text>
    <text x="790" y="368" font-size="26" fill="#7d8da3">d</text>
    <g stroke-width="2">
      <rect x="826" y="188" width="108" height="108" rx="12" fill="#161f2c" stroke="rgba(94,201,122,.34)"/>
      <rect x="946" y="188" width="108" height="108" rx="12" fill="#161f2c" stroke="rgba(94,201,122,.34)"/>
      <rect x="826" y="308" width="108" height="108" rx="12" fill="#161f2c" stroke="rgba(94,201,122,.34)"/>
      <rect x="946" y="308" width="108" height="108" rx="12" fill="#161f2c" stroke="rgba(245,185,66,.44)"/>
    </g>
    <g font-size="34" font-weight="700">
      <text x="880" y="254" fill="#5ec97a">DD</text>
      <text x="1000" y="254" fill="#5ec97a">Dd</text>
      <text x="880" y="374" fill="#5ec97a">Dd</text>
      <text x="1000" y="374" fill="#f5b942">dd</text>
    </g>
  </g>
  <text x="940" y="470" font-family="PingFang SC,Helvetica,sans-serif" font-size="27" font-weight="700" fill="#5ec97a" text-anchor="middle">高茎 3 : 矮茎 1</text>

  <rect x="80" y="150" width="58" height="5" rx="2.5" fill="#5ec97a"/>
  <text x="80" y="244" font-family="PingFang SC,Helvetica,sans-serif" font-size="58" font-weight="700" fill="#e8eef8">孟德尔豌豆</text>
  <text x="80" y="300" font-family="PingFang SC,Helvetica,sans-serif" font-size="27" fill="#9aabc2">3 : 1 是怎么来的</text>
  <g font-family="PingFang SC,Helvetica,sans-serif" font-size="23" fill="#7d8da3">
    <text x="80" y="366">自己选亲本杂交，跑 4 株到 2 万株</text>
    <text x="80" y="404">看比例怎么从乱七八糟慢慢逼近 3:1</text>
  </g>
  <rect x="80" y="436" width="520" height="56" rx="12" fill="#111823" stroke="rgba(245,185,66,.34)"/>
  <text x="104" y="472" font-family="PingFang SC,Helvetica,sans-serif" font-size="22" font-weight="600" fill="#f5b942">3:1 是统计规律，不是每一窝都是</text>
  <text x="80" y="556" font-family="PingFang SC,Helvetica,sans-serif" font-size="23" fill="#5ec97a">学习实验室 · Learn Lab</text>
</svg>
